/* XPM */
static char * bitcoin64_xpm[] = {
"64 64 53 1",
" 	c None",
".	c #3663AF",
"+	c #366AAB",
"@	c #3662AF",
"#	c #3865AF",
"$	c #3561AB",
"%	c #3864AF",
"&	c #3569AF",
"*	c #3563B0",
"=	c #3662AD",
"-	c #3663AE",
";	c #3663B0",
">	c #3561AC",
",	c #3661AC",
"'	c #3763AE",
")	c #3662AE",
"!	c #3562AF",
"~	c #3561AA",
"{	c #3B66AD",
"]	c #3664B0",
"^	c #3661AF",
"/	c #376BAF",
"(	c #3761AF",
"_	c #3660AE",
":	c #3562AD",
"<	c #3563AF",
"[	c #416AB0",
"}	c #3763AD",
"|	c #3B67AF",
"1	c #3664B1",
"2	c #3661AB",
"3	c #3560AA",
"4	c #3467AD",
"5	c #3661AD",
"6	c #3B65AC",
"7	c #3562AE",
"8	c #3765B0",
"9	c #3763AF",
"0	c #3768B0",
"a	c #3864AE",
"b	c #3868B0",
"c	c #3664AF",
"d	c #3460AB",
"e	c #3661A8",
"f	c #3A66B1",
"g	c #3A65AF",
"h	c #3560A8",
"i	c #3560A9",
"j	c #3763AC",
"k	c #3764AD",
"l	c #3663AB",
"m	c #3968B1",
"n	c #3761A8",
"                                                                ",
"                           .+@...#...                           ",
"                       ........$$.......%                       ",
"                    ......            &@...*                    ",
"                  ....                   .=..-                  ",
"                .;;.                        -..>                ",
"               ...                            ,..               ",
"             ...                                ..=             ",
"            ...                                  '.)            ",
"           ...                                    =.;           ",
"          ..                                       .;!          ",
"         ..                                         ~.=         ",
"        ..                                           ...        ",
"       ...                   {.....                   -.$       ",
"       ..                =............]                .;       ",
"      ..               ................^/               .-      ",
"     -.              (.....................              !;     ",
"     ].             _......................$             .=     ",
"    ..             .........................-             .:    ",
"    ..            ...........................!            ..    ",
"   ..            .............................@            ..   ",
"   ..           ................................           =.   ",
"   .            .............      ]............           ..   ",
"  ..           ..........<[          ............           ..  ",
"  ..           ..........             }..........           ..  ",
"  ..          ).........               ).........!          ~.  ",
"  .           ..........                .........|          1.  ",
" ;.           .........                  .........           .  ",
" 2.          3.........                  .........           .. ",
" ..          ]........                    ........           .. ",
" ..          .........                    .........          .. ",
" ..          4........                    1........          .. ",
" ..          5........        ....        .........          @. ",
" ..          .........       ......       .........          .6 ",
" ..          .........      ........      .........          .7 ",
" ..          .........]     ........     ........<           .; ",
" 8.           .........     ........     .........           .  ",
"  ..          ..........    ........    ..........          ..  ",
"  ..          ].........    ........   =..........          ;.  ",
"  ..           ..........   ........   9........'           -0  ",
"  a.           b........c   ........   .........d           ..  ",
"   ..           .........   ........   .........           ..   ",
"   .=           ........    ........   ........            ..   ",
"   ..            .......    ........    ...-...            .    ",
"    .-            $...      ........     $.-.             ..    ",
"    ).                      ........                      ..    ",
"     ..                     ........                     ..     ",
"     $.                     ........                    e..     ",
"      ..                    ........                    ..      ",
"       .=                   ........                   .7       ",
"       ..=                  ........                  ..,       ",
"        ...                 ........                 ...        ",
"         ...                .......;                ...         ",
"          ..$                9....f                ...          ",
"           g..                .=..                ...           ",
"            -.]                                  ...            ",
"             ...                               h.;i             ",
"               ...                            ..-               ",
"                @=.@                        ....                ",
"                  j..).                  .....                  ",
"                    k....l1          .;-...                     ",
"                       ................m<                       ",
"                            .....n.;                            ",
"                                                                "};
