/* XPM */
static char * bitcoin32_xpm[] = {
"32 32 16 1",
" 	c None",
".	c #3663AF",
"+	c #3764AF",
"@	c #3562AD",
"#	c #3664AF",
"$	c #3763AF",
"%	c #3662AE",
"&	c #3663AE",
"*	c #3562AF",
"=	c #3662AF",
"-	c #3661AF",
";	c #3662AD",
">	c #3965AF",
",	c #3563AF",
"'	c #3663B0",
")	c #3663AD",
"                                ",
"           ..+.@@..#$           ",
"         ..          %.         ",
"       ..              %.       ",
"      .                  &      ",
"     .                    *     ",
"    .                      .    ",
"   .        &......=        .   ",
"   .      -..........;      >   ",
"  .      .............*      .  ",
"  .     ...............=     %  ",
" .      ....,>    ......      . ",
" .     .....       &....,     & ",
" &     .....        ....+     ' ",
" .     ....          ....     . ",
" .     ....          '...     . ",
" .     ....    ..    ....     = ",
" .     ....   ....   ....     . ",
" .     .....  ....  .....     . ",
" .     .....  ....  ....&     # ",
" .      ....  .... .....      . ",
"  %     ....  ....  ....     .  ",
"  .           ....   .       .  ",
"   .          ....          )   ",
"   .          ....          .   ",
"    .         ....         .    ",
"     .        ...+        .     ",
"      .                  .      ",
"       .%              ;.       ",
"         ..          ..         ",
"           .&'.....+.           ",
"                                "};
