/* XPM */
static char * bitcoin16_xpm[] = {
"16 16 8 1",
" 	c None",
".	c #3663AF",
"+	c #3664AF",
"@	c #3662AE",
"#	c #3763AF",
"$	c #3763AE",
"%	c #3764AF",
"&	c #3663AE",
"      .  +      ",
"    .      @    ",
"                ",
"       #.       ",
" .   ......   $ ",
"    ........    ",
".   ..    ..   .",
"   ...    @..   ",
"   ... .. ..%   ",
".   .. .. ..   &",
"    .. .. ..    ",
" .     ..     & ",
"       ..       ",
"       ..       ",
"    @      &    ",
"      .  &      "};
